<svg xmlns="http://www.w3.org/2000/svg" width="1391" viewBox="0 0 1391 955" xmlns:ev="http://www.w3.org/2001/xml-events" xmlns:xlink="http://www.w3.org/1999/xlink" height="955"><defs/><g transform="translate(5.5,5.5)" id="page5"><rect width="1382" x="0" fill="none" y="0" height="945"/><g transform="translate(121.500000,281.666667)" id="group1"><path transform="translate(0.000000,-0.000000)" id="shape2" fill="#ffffff" d="M340.0,213.0L340.0,11.0C340.0,4.9,335.1,.0,329.0,.0L11.0,.0C4.9,.0,.0,4.9,.0,11.0L.0,213.0C.0,219.1,4.9,224.0,11.0,224.0L329.0,224.0C335.1,224.0,340.0,219.1,340.0,213.0z" stroke="#323232" fill-rule="nonzero" stroke-width="3"/><g transform="translate(132.000000,29.666667)" id="shape3"><path fill="#ffffff" d="M77.3,59.0L77.3,11.0C77.3,4.9,72.4,.0,66.3,.0L11.0,.0C4.9,.0,.0,4.9,.0,11.0L.0,59.0C.0,65.1,4.9,70.0,11.0,70.0L66.3,70.0C72.4,70.0,77.3,65.1,77.3,59.0z" stroke="#323232" fill-rule="nonzero" stroke-width="3"/><text style="fill:#191919;font-family:Fira Code Retina;font-size:10.00pt" xml:space="preserve"><tspan x="22.7" y="37.7">Pod2</tspan></text></g><g transform="translate(30.000000,29.666667)" id="shape4"><path fill="#ffffff" d="M77.3,59.0L77.3,11.0C77.3,4.9,72.4,.0,66.3,.0L11.0,.0C4.9,.0,.0,4.9,.0,11.0L.0,59.0C.0,65.1,4.9,70.0,11.0,70.0L66.3,70.0C72.4,70.0,77.3,65.1,77.3,59.0z" stroke="#323232" fill-rule="nonzero" stroke-width="3"/><text style="fill:#191919;font-family:Fira Code Retina;font-size:10.00pt" xml:space="preserve"><tspan x="22.7" y="37.7">Pod1</tspan></text></g><g transform="translate(234.000000,29.666667)" id="shape5"><path fill="#ffffff" d="M77.3,59.0L77.3,11.0C77.3,4.9,72.4,.0,66.3,.0L11.0,.0C4.9,.0,.0,4.9,.0,11.0L.0,59.0C.0,65.1,4.9,70.0,11.0,70.0L66.3,70.0C72.4,70.0,77.3,65.1,77.3,59.0z" stroke="#323232" fill-rule="nonzero" stroke-width="3"/><text style="fill:#191919;font-family:Fira Code Retina;font-size:10.00pt" xml:space="preserve"><tspan x="22.7" y="37.7">Pod3</tspan></text></g><g transform="translate(30.000000,124.666667)" id="shape6"><path fill="#ffffff" d="M77.3,59.0L77.3,11.0C77.3,4.9,72.4,.0,66.3,.0L11.0,.0C4.9,.0,.0,4.9,.0,11.0L.0,59.0C.0,65.1,4.9,70.0,11.0,70.0L66.3,70.0C72.4,70.0,77.3,65.1,77.3,59.0z" stroke="#323232" fill-rule="nonzero" stroke-width="3"/><text style="fill:#191919;font-family:Fira Code Retina;font-size:10.00pt" xml:space="preserve"><tspan x="22.7" y="37.7">Pod4</tspan></text></g><g transform="translate(132.000018,124.666667)" id="shape7"><path fill="#ffffff" d="M77.3,59.0L77.3,11.0C77.3,4.9,72.4,.0,66.3,.0L11.0,.0C4.9,.0,.0,4.9,.0,11.0L.0,59.0C.0,65.1,4.9,70.0,11.0,70.0L66.3,70.0C72.4,70.0,77.3,65.1,77.3,59.0z" stroke="#323232" fill-rule="nonzero" stroke-width="3"/><text style="fill:#191919;font-family:Fira Code Retina;font-size:10.00pt" xml:space="preserve"><tspan x="22.7" y="37.7">Pod5</tspan></text></g><g transform="translate(234.000000,124.666667)" id="shape8"><path fill="#ffffff" d="M77.3,59.0L77.3,11.0C77.3,4.9,72.4,.0,66.3,.0L11.0,.0C4.9,.0,.0,4.9,.0,11.0L.0,59.0C.0,65.1,4.9,70.0,11.0,70.0L66.3,70.0C72.4,70.0,77.3,65.1,77.3,59.0z" stroke="#323232" fill-rule="nonzero" stroke-width="3"/><text style="fill:#191919;font-family:Fira Code Retina;font-size:10.00pt" xml:space="preserve"><tspan x="22.7" y="37.7">Pod6</tspan></text></g></g><g transform="translate(580.500000,358.666667)" id="shape9"><path fill="#ffffff" d="M140.0,59.0L140.0,11.0C140.0,4.9,135.1,.0,129.0,.0L11.0,.0C4.9,.0,.0,4.9,.0,11.0L.0,59.0C.0,65.1,4.9,70.0,11.0,70.0L129.0,70.0C135.1,70.0,140.0,65.1,140.0,59.0z" stroke="#323232" fill-rule="nonzero" stroke-width="3"/><text style="fill:#191919;font-family:Fira Code Retina;font-size:10.00pt" xml:space="preserve"><tspan x="42.0" y="37.7">Trigger</tspan></text></g><g transform="translate(580.500000,655.083570)" id="shape10"><path fill="#ffffff" d="M140.0,59.0L140.0,11.0C140.0,4.9,135.1,.0,129.0,.0L11.0,.0C4.9,.0,.0,4.9,.0,11.0L.0,59.0C.0,65.1,4.9,70.0,11.0,70.0L129.0,70.0C135.1,70.0,140.0,65.1,140.0,59.0z" stroke="#323232" fill-rule="nonzero" stroke-width="3"/><text style="fill:#191919;font-family:Fira Code Retina;font-size:10.00pt" xml:space="preserve"><tspan x="22.0" y="37.7">OperationSet</tspan></text></g><g transform="translate(580.500000,522.916430)" id="shape11"><path fill="#ffffff" d="M140.0,59.0L140.0,11.0C140.0,4.9,135.1,.0,129.0,.0L11.0,.0C4.9,.0,.0,4.9,.0,11.0L.0,59.0C.0,65.1,4.9,70.0,11.0,70.0L129.0,70.0C135.1,70.0,140.0,65.1,140.0,59.0z" stroke="#323232" fill-rule="nonzero" stroke-width="3"/><text style="fill:#191919;font-family:Fira Code Retina;font-size:10.00pt" xml:space="preserve"><tspan x="34.0" y="37.7">Diagnosis</tspan></text></g><g transform="translate(756.500000,671.333806)" id="shape12"><path fill="#ffffff" d="M140.0,26.5L140.0,11.0C140.0,4.9,135.1,.0,129.0,.0L11.0,.0C4.9,.0,.0,4.9,.0,11.0L.0,26.5C.0,32.6,4.9,37.5,11.0,37.5L129.0,37.5C135.1,37.5,140.0,32.6,140.0,26.5z" stroke="#323232" fill-rule="nonzero" stroke-width="3"/><text style="fill:#191919;font-family:Fira Code Retina;font-size:10.00pt" xml:space="preserve"><tspan x="34.0" y="21.7">Operation</tspan></text></g><g transform="translate(920.500000,671.333806)" id="shape13"><path fill="#ffffff" d="M140.0,26.5L140.0,11.0C140.0,4.9,135.1,.0,129.0,.0L11.0,.0C4.9,.0,.0,4.9,.0,11.0L.0,26.5C.0,32.6,4.9,37.5,11.0,37.5L129.0,37.5C135.1,37.5,140.0,32.6,140.0,26.5z" stroke="#323232" fill-rule="nonzero" stroke-width="3"/><text style="fill:#191919;font-family:Fira Code Retina;font-size:10.00pt" xml:space="preserve"><tspan x="34.0" y="21.4">Operation</tspan></text></g><g transform="translate(720.500000,690.083570)" id="shape14"><path fill="none" d="M.0,.0L25.6,.0" stroke="#303030" stroke-width="3"/><path stroke-linecap="round" fill="#303030" d="M25.6,-5.2L36.0,.0L25.6,5.2L25.6,-5.2" stroke="#303030" stroke-width="1"/></g><g transform="translate(896.500000,690.083570)" id="shape15"><path fill="none" d="M.0,.0L13.6,.0" stroke="#303030" stroke-width="3"/><path stroke-linecap="round" fill="#303030" d="M13.6,-5.2L24.0,.0L13.6,5.2L13.6,-5.2" stroke="#303030" stroke-width="1"/></g><g transform="translate(461.500000,393.666667)" id="shape16"><path fill="none" d="M.0,.0L108.6,.0" stroke="#303030" stroke-width="3"/><path stroke-linecap="round" fill="#303030" d="M108.6,-5.2L119.0,.0L108.6,5.2L108.6,-5.2" stroke="#303030" stroke-width="1"/><rect width="80.0" x="28.7" fill="#ffffff" y="-10.3" height="18.0"/><text style="font-family:Fira Code Retina;font-size:10.00pt" xml:space="preserve"><tspan x="28.7" y="3.7">应用报警触发</tspan></text></g><g transform="translate(650.500000,592.916430)" id="shape17"><path fill="none" d="M.0,.0L.0,52.6" stroke="#303030" stroke-width="3"/><path stroke-linecap="round" fill="#303030" d="M5.2,52.6L.0,63.0L-5.2,52.6L5.2,52.6" stroke="#303030" stroke-width="1"/><rect width="53.3" x="-25.7" fill="#ffffff" y="13.6" height="18.0"/><text style="font-family:Fira Code Retina;font-size:10.00pt" xml:space="preserve"><tspan x="-25.7" y="27.6">选择一条</tspan></text></g><g transform="translate(1060.500000,690.083606)" id="shape18"><path fill="none" d="M.0,.0L28.0,.0L28.0,-496.0L-769.0,-496.0L-769.0,-419.4" stroke="#303030" stroke-width="3"/><path stroke-linecap="round" fill="#303030" d="M-763.8,-419.4L-769.0,-409.0L-774.2,-419.4L-763.8,-419.4" stroke="#303030" stroke-width="1"/><rect width="53.3" x="2.3" fill="#ffffff" y="-226.8" height="18.0"/><rect width="77.3" x="-9.7" fill="#ffffff" y="-208.8" height="18.0"/><text style="font-family:Fira Code Retina;font-size:10.00pt" xml:space="preserve"><tspan x="2.3" y="-212.8">重启脚本</tspan><tspan x="-9.7" y="-194.8">重启指定Pod</tspan></text></g><g transform="matrix(0.000000,-1.000000,1.000000,0.000000,503.162835,302.000000)" id="shape19"><path fill="#ffffff" d="M.0,.0L80.0,.0L80.0,149.7L.0,149.7L.0,84.7L.0,84.7L-67.0,25.8L.0,65.1L.0,65.1L.0,.0" stroke="#000000" fill-rule="nonzero" stroke-width="1"/><text transform="matrix(0.00,1.00,-1.00,0.00,114.9,34.9)" style="fill:#191919;font-family:Fira Code Retina;font-size:10.00pt" xml:space="preserve"><tspan x="-28.0" y="69.5">怎样传递给Trigger是</tspan><tspan x="-25.3" y="87.5">哪个Pod发出的警报？</tspan></text></g><g transform="translate(650.500000,428.666667)" id="shape20"><path fill="none" d="M.0,.0L.0,83.6" stroke="#303030" stroke-width="3"/><path stroke-linecap="round" fill="#303030" d="M5.2,83.6L.0,94.0L-5.2,83.6L5.2,83.6" stroke="#303030" stroke-width="1"/><rect width="26.7" x="-12.3" fill="#ffffff" y="14.8" height="18.0"/><text style="font-family:Fira Code Retina;font-size:10.00pt" xml:space="preserve"><tspan x="-12.3" y="28.8">诊断</tspan></text></g><g transform="matrix(0.000000,-1.000000,1.000000,0.000000,730.162900,416.000000)" id="shape21"><path fill="#ffffff" d="M.0,.0L80.0,.0L80.0,149.7L.0,149.7L.0,84.7L.0,84.7L-59.8,-80.2L.0,65.1L.0,65.1L.0,.0" stroke="#000000" fill-rule="nonzero" stroke-width="1"/><text transform="matrix(0.00,1.00,-1.00,0.00,114.9,34.9)" style="fill:#191919;font-family:Fira Code Retina;font-size:10.00pt" xml:space="preserve"><tspan x="-29.3" y="60.5">怎样传递给Diagnosis</tspan><tspan x="-25.3" y="78.5">上游过来的是哪个Pod</tspan><tspan x="20.0" y="96.5">的参数</tspan></text></g><g transform="matrix(0.000000,-1.000000,1.000000,0.000000,365.133900,604.083570)" id="shape22"><path fill="#ffffff" d="M.0,.0L80.0,.0L80.0,149.7L.0,149.7L.0,84.7L.0,84.7L-19.9,258.9L-4.9,65.1L.0,65.1L.0,.0" stroke="#000000" fill-rule="nonzero" stroke-width="1"/><text transform="matrix(0.00,1.00,-1.00,0.00,114.9,34.9)" style="fill:#191919;font-family:Fira Code Retina;font-size:10.00pt" xml:space="preserve"><tspan x="-20.0" y="60.5">怎样根据情况选择？</tspan><tspan x="6.7" y="78.5">怎样传递给</tspan><tspan x="-28.0" y="96.5">OperationSet参数？</tspan></text></g><g transform="matrix(0.000000,1.000000,-1.000000,0.000000,955.866100,775.000000)" id="shape23"><path fill="#ffffff" d="M.0,.0L80.0,.0L80.0,149.7L.0,149.7L.0,84.7L.0,84.7L-84.9,50.2L.0,65.1L.0,65.1L.0,.0" stroke="#000000" fill-rule="nonzero" stroke-width="1"/><text transform="matrix(0.00,-1.00,1.00,0.00,-34.9,114.9)" style="fill:#191919;font-family:Fira Code Retina;font-size:10.00pt" xml:space="preserve"><tspan x="-29.3" y="78.5">Operation之间传参？</tspan></text></g><g transform="matrix(0.000000,-1.000000,1.000000,0.000000,869.466918,604.372806)" id="shape24"><path fill="#ffffff" d="M.0,.0L80.0,.0L80.0,149.7L.0,149.7L.0,84.7L.0,84.7L-67.0,99.6L.0,65.1L.0,65.1L.0,.0" stroke="#000000" fill-rule="nonzero" stroke-width="1"/><text transform="matrix(0.00,1.00,-1.00,0.00,114.9,34.9)" style="fill:#191919;font-family:Fira Code Retina;font-size:10.00pt" xml:space="preserve"><tspan x="-26.7" y="60.5">上游过来的参数，怎样</tspan><tspan x="-22.7" y="78.5">放到Operation脚本</tspan><tspan x="26.7" y="96.5">中？</tspan></text></g></g></svg>